<?xml version="1.0" encoding="UTF-8"?>
<svg version="1.1" xmlns="http://www.w3.org/2000/svg" width="1024" height="1024">
<path d="M0 0 C37.95 0 75.9 0 115 0 C119.66385981 6.41280724 124.0730295 12.48807659 128.0625 19.25 C132.3290528 26.35205011 136.76721264 33.32323649 141.3125 40.25 C146.34718494 47.92403574 151.33423737 55.62418496 156.25 63.375 C160.30530061 69.76857806 164.37638122 76.15024946 168.5 82.5 C173.19736991 89.73641878 177.83453998 97.01010214 182.46142578 104.29174805 C188.93243038 114.47357583 195.43900017 124.63252929 201.94580078 134.79150391 C204.02635707 138.04116766 206.10522139 141.29190786 208.18359375 144.54296875 C216.8739221 158.13478083 216.8739221 158.13478083 225.625 171.6875 C230.27987453 178.86224113 234.87514009 186.0740544 239.46191406 193.29248047 C245.94011358 203.48575767 252.45381654 213.65621044 258.96777344 223.82666016 C262.31304949 229.05033844 265.65643813 234.27522441 269 239.5 C270.33332409 241.58333925 271.66665743 243.66667258 273 245.75 C275.66666667 249.91666667 278.33333333 254.08333333 281 258.25 C281.66088623 259.28261963 282.32177246 260.31523926 283.00268555 261.37915039 C284.32712256 263.44861357 285.65150467 265.51811189 286.97583008 267.58764648 C290.07676801 272.43336354 293.17822833 277.27874357 296.28170776 282.12283325 C297.37739531 283.8331032 298.47290401 285.54348758 299.56835938 287.25390625 C300.9404004 289.39606063 302.31277457 291.53800168 303.68554688 293.6796875 C304.30880859 294.65292969 304.93207031 295.62617187 305.57421875 296.62890625 C306.11651123 297.47525635 306.65880371 298.32160645 307.2175293 299.19360352 C309.49766396 302.78354296 311.74599736 306.39359578 314 310 C314.33 207.7 314.66 105.4 315 0 C352.95 0 390.9 0 430 0 C430 165.66 430 331.32 430 502 C391.72 502 353.44 502 314 502 C309.38 494.74 304.76 487.48 300 480 C297.37717652 475.89440064 294.75333454 471.78955854 292.125 467.6875 C290.7734294 465.5768281 289.42186715 463.46615086 288.0703125 461.35546875 C287.39774414 460.30536621 286.72517578 459.25526367 286.03222656 458.17333984 C282.68695051 452.94966156 279.34356187 447.72477559 276 442.5 C274.66667591 440.41666075 273.33334257 438.33332742 272 436.25 C248 398.75 248 398.75 245.9987793 395.62304688 C244.66957043 393.54618846 243.34030638 391.46936537 242.01098633 389.39257812 C238.61408814 384.08547128 235.21824233 378.77769576 231.82421875 373.46875 C223.19117614 359.9656756 223.19117614 359.9656756 214.5 346.5 C207.98037467 336.4477795 201.53413636 326.34860713 195.08056641 316.25390625 C191.72213456 311.00147964 188.36096238 305.75080756 185 300.5 C183.6666528 298.41667554 182.33331949 296.3333422 181 294.25 C180.01 292.703125 180.01 292.703125 179 291.125 C157 256.75 157 256.75 154.9987793 253.62304688 C153.66957043 251.54618846 152.34030638 249.46936537 151.01098633 247.39257812 C147.61408814 242.08547128 144.21824233 236.77769576 140.82421875 231.46875 C128.53434707 212.15501903 128.53434707 212.15501903 116 193 C115.67 294.97 115.34 396.94 115 502 C77.05 502 39.1 502 0 502 C0 336.34 0 170.68 0 0 Z " fill="#EBF9FD" transform="translate(297,365)"/>
<path d="M0 0 C3.44996778 0.79999253 5.06552996 2.75592995 7.15625 5.5 C8.41651798 8.02053595 8.07499445 9.3542098 7.71875 12.125 C7.56599609 13.35089844 7.56599609 13.35089844 7.41015625 14.6015625 C7.28447266 15.54128906 7.28447266 15.54128906 7.15625 16.5 C8.1978125 16.62375 9.239375 16.7475 10.3125 16.875 C28.84303219 19.41139928 44.37011692 27.53533517 56.015625 42.41796875 C66.44922926 57.44007416 70.68573164 74.59039957 67.5 92.6171875 C64.13811362 108.81307996 55.71253283 122.39442573 42.34375 132.3125 C32.59984615 138.66126235 22.55394522 142.37342511 11.15625 144.5 C11.81625 145.345625 12.47625 146.19125 13.15625 147.0625 C15.46803236 151.03587593 15.81369119 152.98009183 15.15625 157.5 C13.36062595 160.25329021 12.10370078 162.02627461 9.15625 163.5 C0.14586938 163.93598616 0.14586938 163.93598616 -2.84375 161.5 C-5.16830736 158.05324254 -5.85329896 156.05383955 -5.78125 151.875 C-4.75496909 148.18038871 -3.59553238 147.03584774 -0.84375 144.5 C-1.83632813 144.29246094 -2.82890625 144.08492187 -3.8515625 143.87109375 C-23.56219651 139.5039793 -38.60538348 130.65798136 -49.84375 113.5 C-58.96451767 98.32904729 -60.29923597 81.64597115 -56.84375 64.5 C-52.51165231 48.01636831 -42.14932314 34.19660596 -27.59375 25.4375 C-21.82075552 22.33942704 -16.50540479 19.5 -9.84375 19.5 C-10.6171875 17.9840625 -10.6171875 17.9840625 -11.40625 16.4375 C-13.08827565 12.45375504 -13.09236833 9.71408687 -11.84375 5.5 C-8.55927797 0.67593171 -5.59180479 -0.29822959 0 0 Z " fill="#E8F6FA" transform="translate(853.84375,368.5)"/>
<path d="M0 0 C3.63946908 2.50213499 4.74875408 4.15204503 6 8.375 C6 12.79144312 4.98881988 15.10191304 3 19 C4.52173828 19.1546875 4.52173828 19.1546875 6.07421875 19.3125 C17.22009689 21.26441498 26.27864577 28.06996052 34 36 C34.62261719 36.59039062 35.24523437 37.18078125 35.88671875 37.7890625 C40.0178357 42.00373013 42.66352566 46.78059719 45.3125 52 C45.65039551 52.66459229 45.98829102 53.32918457 46.33642578 54.01391602 C52.83281535 67.39318921 53.51369091 85.13857576 49.3125 99.375 C48.59080264 101.26945558 47.82335086 103.14746056 47 105 C46.649375 105.86109375 46.29875 106.7221875 45.9375 107.609375 C39.54489788 121.90394362 27.42408919 132.87544026 13.08984375 138.9375 C6.84936056 141.08340572 0.43311146 142.55517321 -6 144 C-5.35933594 144.59039063 -4.71867187 145.18078125 -4.05859375 145.7890625 C-1.23166178 148.82519816 -1.07077442 150.89508381 -1 155 C-2.13861511 158.17613688 -3.05983646 160.23394082 -5.6875 162.375 C-9.16201646 163.3140585 -12.46135728 163.58977379 -16 163 C-18.8100346 161.20636089 -20.50940468 159.98119065 -22 157 C-22.55868236 151.18970347 -21.34238325 148.6674701 -18 144 C-18.98097656 143.8040625 -19.96195313 143.608125 -20.97265625 143.40625 C-38.94595844 139.54167565 -54.49411968 131.14896439 -64.9375 115.5625 C-74.40267305 99.35627688 -77.82369034 82.02766947 -73.375 63.6875 C-68.973914 47.19385896 -58.14449207 33.25638138 -43.49609375 24.50390625 C-34.11521483 19.55655696 -24.42449766 17.52247818 -14 16 C-14.11859375 15.41992188 -14.2371875 14.83984375 -14.359375 14.2421875 C-15.09889725 9.76068264 -15.34021005 7.65695733 -13.1875 3.5 C-9.43599351 -0.78743599 -5.45400711 -0.81951402 0 0 Z " fill="#E9F7FA" transform="translate(177,369)"/>
<path d="M0 0 C10.08547506 9.56660817 19.00001063 23.20316997 19.98950195 37.41772461 C20.53102903 62.6882691 20.53102903 62.6882691 15.8125 72.875 C15.38839844 73.81988281 14.96429688 74.76476562 14.52734375 75.73828125 C11.02968917 82.78230425 6.34519639 88.33281357 0.8125 93.875 C0.17441406 94.5246875 -0.46367187 95.174375 -1.12109375 95.84375 C-13.54419098 107.62115611 -30.22776494 111.47686393 -46.86328125 111.14453125 C-62.39027181 110.43542459 -76.84398735 103.90020478 -88.09765625 93.19140625 C-101.04809424 78.83699554 -107.00608816 62.50610287 -106.5 43.2578125 C-105.50065128 24.34513788 -96.11884385 9.98481647 -82.640625 -2.48046875 C-74.59197939 -9.31156447 -65.62410594 -13.52924479 -55.1875 -15.125 C-54.44371094 -15.24746094 -53.69992188 -15.36992188 -52.93359375 -15.49609375 C-33.22316138 -18.12631619 -15.15227528 -12.74381177 0 0 Z " fill="#E8F6FA" transform="translate(208.1875,811.125)"/>
<path d="M0 0 C12.34416092 10.72303993 21.60120459 25.51212599 23.07446289 42.06616211 C23.96583628 61.27256035 20.39932605 77.94352787 7.54296875 92.98046875 C0.47533914 100.37153225 -7.8333154 105.49402279 -17.14453125 109.60546875 C-17.81484375 109.91484375 -18.48515625 110.22421875 -19.17578125 110.54296875 C-33.9489314 116.45222881 -52.02793071 114.20114912 -66.3359375 108.34375 C-71.4637602 106.10088164 -75.82092018 103.14226051 -80.14453125 99.60546875 C-80.84964844 99.06148438 -81.55476563 98.5175 -82.28125 97.95703125 C-90.88794424 90.97331364 -96.17273186 81.83321591 -100.14453125 71.60546875 C-100.46550781 70.81269531 -100.78648437 70.01992187 -101.1171875 69.203125 C-105.21074975 57.15091615 -105.12333446 40.34602497 -100.14453125 28.60546875 C-99.77328125 27.71166504 -99.77328125 27.71166504 -99.39453125 26.79980469 C-91.9111745 9.20871956 -80.7035234 -2.14799701 -62.95703125 -9.76953125 C-41.39038913 -17.56802904 -18.15932262 -13.82815499 0 0 Z " fill="#E9F6FA" transform="translate(552.14453125,52.39453125)"/>
<path d="M0 0 C12.86836832 11.54611396 20.03876653 26.3209083 21.25390625 43.61328125 C21.99718403 61.86764129 16.4410414 77.38971648 4.546875 91.359375 C-7.41796197 103.76463542 -22.86151682 110.86432882 -40.10546875 111.30273438 C-59.30545524 111.3927906 -74.57563085 104.85309505 -88.6875 91.875 C-100.19540079 79.87213573 -106.14971045 63.52429128 -106 47 C-104.98699151 28.85629441 -98.581014 12.19691581 -85.0625 -0.3828125 C-59.58004263 -20.36337567 -24.80832625 -21.57830909 0 0 Z " fill="#E9F6FA" transform="translate(901,811)"/>
<path d="M0 0 C4.26339067 -0.07105651 7.87943108 -0.10938394 12 1 C12.66 0.67 13.32 0.34 14 0 C16.3329866 -0.04022391 18.66706666 -0.04320247 21 0 C19.02 0.99 19.02 0.99 17 2 C17.66 2.845625 18.32 3.69125 19 4.5625 C21.31178236 8.53587593 21.65744119 10.48009183 21 15 C19.20437595 17.75329021 17.94745078 19.52627461 15 21 C5.98961938 21.43598616 5.98961938 21.43598616 3 19 C0.67544264 15.55324254 -0.00954896 13.55383955 0.0625 9.375 C1.07028367 5.74697879 2.107847 4.33238145 5 2 C3.35 1.67 1.7 1.34 0 1 C0 0.67 0 0.34 0 0 Z " fill="#D1DDE1" transform="translate(848,511)"/>
<path d="M0 0 C13.33064516 -0.23387097 13.33064516 -0.23387097 17.875 3.125 C20.45927758 6.62137555 21 8.66360584 21 13 C19.86138489 16.17613688 18.94016354 18.23394082 16.3125 20.375 C12.83798354 21.3140585 9.53864272 21.58977379 6 21 C3.1899654 19.20636089 1.49059532 17.98119065 0 15 C-0.54903034 9.29008444 0.48630449 6.50192237 4 2 C2.68 1.34 1.36 0.68 0 0 Z " fill="#D8E5E9" transform="translate(155,511)"/>
<path d="M0 0 C3.12021216 2.42683168 4.69814705 4.13217278 6 7.875 C6 11.93344247 4.96854587 14.47019361 3 18 C0.10629989 20.46500379 -3.30074196 20.41469749 -7.03125 20.32421875 C-10.17832363 19.80595067 -11.85759665 18.27224598 -14 16 C-15.20190901 12.39427296 -15.32670315 9.7897565 -15 6 C-13.17863582 2.96439304 -11.68054389 1.39399909 -8.625 -0.375 C-5.27348387 -1.17298003 -3.29688018 -1.03027506 0 0 Z " fill="#D4E1E4" transform="translate(828,341)"/>
<path d="M0 0 C4.57627119 3.15254237 4.57627119 3.15254237 6 6 C6.54724071 11.69130337 5.59333707 14.56117185 2 19 C-1.74349288 20.87174644 -6.3434476 20.44771687 -10.3125 19.375 C-12.94016354 17.23394082 -13.86138489 15.17613688 -15 12 C-15 7.5046915 -14.50373264 5.60978161 -11.625 2.125 C-7.51449311 -1.20255319 -5.00928459 -1.30241399 0 0 Z " fill="#D4E1E4" transform="translate(205,341)"/>
<path d="M0 0 C3.12021216 2.42683168 4.69814705 4.13217278 6 7.875 C6 11.93344247 4.96854587 14.47019361 3 18 C0.10629989 20.46500379 -3.30074196 20.41469749 -7.03125 20.32421875 C-10.17832363 19.80595067 -11.85759665 18.27224598 -14 16 C-15.20190901 12.39427296 -15.32670315 9.7897565 -15 6 C-13.17863582 2.96439304 -11.68054389 1.39399909 -8.625 -0.375 C-5.27348387 -1.17298003 -3.29688018 -1.03027506 0 0 Z " fill="#D4E1E4" transform="translate(630,143)"/>
<path d="M0 0 C4.57627119 3.15254237 4.57627119 3.15254237 6 6 C6.54724071 11.69130337 5.59333707 14.56117185 2 19 C-1.74349288 20.87174644 -6.3434476 20.44771687 -10.3125 19.375 C-12.94016354 17.23394082 -13.86138489 15.17613688 -15 12 C-15 7.5046915 -14.50373264 5.60978161 -11.625 2.125 C-7.51449311 -1.20255319 -5.00928459 -1.30241399 0 0 Z " fill="#D4E1E4" transform="translate(403,143)"/>
<path d="M0 0 C3.14727914 2.84270374 3.74484475 5.83246418 4 10 C3.21128929 13.31258497 2.15873468 14.83219476 -0.1875 17.3125 C-3.81878998 19.49127399 -5.82154127 19.58645035 -10 19 C-15.53846154 15.92307692 -15.53846154 15.92307692 -17 13 C-17.66739635 8.14707508 -17.75085716 5.00114288 -14.75 1 C-9.67471879 -2.69111361 -5.67095306 -2.23218365 0 0 Z " fill="#D5E2E5" transform="translate(717,229)"/>
<path d="M0 0 C2.4375 1.5625 2.4375 1.5625 4 4 C4.62080474 7.1274503 4.66239638 9.8772742 4 13 C1.81840855 15.75569447 0.12822506 17.43588747 -3 19 C-7.49796366 19.51899581 -9.49565893 19.31754808 -13.375 16.875 C-16.33413603 13.6340415 -17.08707144 12.35357219 -17 8 C-15.74488452 3.37176167 -14.83102983 1.52738431 -10.75 -1.0625 C-6.28720264 -2.17819934 -4.19403901 -1.82005466 0 0 Z " fill="#D5E2E6" transform="translate(320,229)"/>
<path d="M0 0 C3.20577872 1.808388 3.82003953 2.46011859 5 6 C5.6914329 13.14480667 5.6914329 13.14480667 2.625 16.9375 C-1.18335279 19.9297772 -3.155128 20.37998996 -8 20 C-11.74502983 18.51940681 -12.85739738 17.2392044 -14.9375 13.75 C-16.22182119 9.21710169 -16.00267021 7.24566084 -14 3 C-9.22397194 -1.54859815 -6.07481861 -1.46971418 0 0 Z " fill="#D5E1E5" transform="translate(687,200)"/>
<path d="M0 0 C3.02519989 2.05971056 4.66926776 3.51573824 5.48046875 7.15625 C5.7530672 11.57676536 5.43956037 13.44476585 2.625 17 C-1.19852675 19.91316324 -3.18525148 20.37762733 -8 20 C-11.49406769 18.33237678 -12.82670681 17.25993978 -15 14 C-15.5454104 10.93421943 -15.53808365 8.0670768 -15 5 C-10.58053726 -0.73335706 -6.94670018 -1.6767897 0 0 Z " fill="#D5E1E5" transform="translate(347,200)"/>
<path d="M0 0 C2.75569447 2.18159145 4.43588747 3.87177494 6 7 C6.12150428 11.49565838 5.80266747 14.9715823 3 18.5625 C-1.10762037 20.53073476 -4.52935401 20.92328558 -9 20 C-12.67080764 17.47631975 -13.75864984 15.82964117 -15 11.5625 C-15 7.46905764 -14.22004022 5.40934749 -12 2 C-7.99745384 -0.66836411 -4.70686701 -0.8340238 0 0 Z " fill="#D5E2E5" transform="translate(658,171)"/>
<path d="M0 0 C3.67080764 2.52368025 4.75864984 4.17035883 6 8.4375 C6 12.53094236 5.22004022 14.59065251 3 18 C-1.05069602 20.70046402 -4.24723307 20.64204044 -9 20 C-12 18.5625 -12 18.5625 -14 16 C-14.98242885 12.93644968 -15.29940201 10.20471039 -15 7 C-11.38000032 0.0096558 -7.52790095 -1.13113538 0 0 Z " fill="#D8E5E9" transform="translate(375,171)"/>
<path d="M0 0 C3.44996778 0.79999253 5.06552996 2.75592995 7.15625 5.5 C8.70649464 8.60048928 8.44617015 11.07894218 8.15625 14.5 C6.36062595 17.25329021 5.10370078 19.02627461 2.15625 20.5 C-6.85413062 20.93598616 -6.85413062 20.93598616 -9.84375 18.5 C-12.13522823 15.10229091 -12.84375 13.05333147 -12.84375 8.9375 C-10.80673493 1.9352607 -7.01448679 -0.37410596 0 0 Z " fill="#D5E1E5" transform="translate(860.84375,751.5)"/>
<path d="M0 0 C3.44996778 0.79999253 5.06552996 2.75592995 7.15625 5.5 C8.70649464 8.60048928 8.44617015 11.07894218 8.15625 14.5 C6.36062595 17.25329021 5.10370078 19.02627461 2.15625 20.5 C-6.85413062 20.93598616 -6.85413062 20.93598616 -9.84375 18.5 C-12.13522823 15.10229091 -12.84375 13.05333147 -12.84375 8.9375 C-10.80673493 1.9352607 -7.01448679 -0.37410596 0 0 Z " fill="#D5E1E5" transform="translate(860.84375,711.5)"/>
<path d="M0 0 C3.44996778 0.79999253 5.06552996 2.75592995 7.15625 5.5 C8.70649464 8.60048928 8.44617015 11.07894218 8.15625 14.5 C6.36062595 17.25329021 5.10370078 19.02627461 2.15625 20.5 C-6.85413062 20.93598616 -6.85413062 20.93598616 -9.84375 18.5 C-12.13522823 15.10229091 -12.84375 13.05333147 -12.84375 8.9375 C-10.80673493 1.9352607 -7.01448679 -0.37410596 0 0 Z " fill="#D5E1E5" transform="translate(860.84375,671.5)"/>
<path d="M0 0 C3.44996778 0.79999253 5.06552996 2.75592995 7.15625 5.5 C8.70649464 8.60048928 8.44617015 11.07894218 8.15625 14.5 C6.36062595 17.25329021 5.10370078 19.02627461 2.15625 20.5 C-6.85413062 20.93598616 -6.85413062 20.93598616 -9.84375 18.5 C-12.13522823 15.10229091 -12.84375 13.05333147 -12.84375 8.9375 C-10.80673493 1.9352607 -7.01448679 -0.37410596 0 0 Z " fill="#D5E1E5" transform="translate(860.84375,631.5)"/>
<path d="M0 0 C3.44996778 0.79999253 5.06552996 2.75592995 7.15625 5.5 C8.70649464 8.60048928 8.44617015 11.07894218 8.15625 14.5 C6.36062595 17.25329021 5.10370078 19.02627461 2.15625 20.5 C-6.85413062 20.93598616 -6.85413062 20.93598616 -9.84375 18.5 C-12.13522823 15.10229091 -12.84375 13.05333147 -12.84375 8.9375 C-10.80673493 1.9352607 -7.01448679 -0.37410596 0 0 Z " fill="#D5E1E5" transform="translate(860.84375,591.5)"/>
<path d="M0 0 C3.44996778 0.79999253 5.06552996 2.75592995 7.15625 5.5 C8.70649464 8.60048928 8.44617015 11.07894218 8.15625 14.5 C6.36062595 17.25329021 5.10370078 19.02627461 2.15625 20.5 C-6.85413062 20.93598616 -6.85413062 20.93598616 -9.84375 18.5 C-12.13522823 15.10229091 -12.84375 13.05333147 -12.84375 8.9375 C-10.80673493 1.9352607 -7.01448679 -0.37410596 0 0 Z " fill="#D5E1E5" transform="translate(860.84375,551.5)"/>
<path d="M0 0 C3.02519989 2.05971056 4.66926776 3.51573824 5.48046875 7.15625 C5.7530672 11.57676536 5.43956037 13.44476585 2.625 17 C-1.19852675 19.91316324 -3.18525148 20.37762733 -8 20 C-11.49406769 18.33237678 -12.82670681 17.25993978 -15 14 C-15.5454104 10.93421943 -15.53808365 8.0670768 -15 5 C-10.58053726 -0.73335706 -6.94670018 -1.6767897 0 0 Z " fill="#D9E6EA" transform="translate(800,313)"/>
<path d="M0 0 C3.08813077 2.05875385 4.66221204 3.4716479 5.4765625 7.15625 C5.75651394 11.57653582 5.43904153 13.44542123 2.625 17 C-1.19852675 19.91316324 -3.18525148 20.37762733 -8 20 C-11.49406769 18.33237678 -12.82670681 17.25993978 -15 14 C-15.54531842 10.93473649 -15.54325893 8.06591671 -15 5 C-10.51832951 -0.66105746 -6.95672877 -1.88882502 0 0 Z " fill="#D6E2E6" transform="translate(234,313)"/>
<path d="M0 0 C3.02519989 2.05971056 4.66926776 3.51573824 5.48046875 7.15625 C5.7530672 11.57676536 5.43956037 13.44476585 2.625 17 C-1.19852675 19.91316324 -3.18525148 20.37762733 -8 20 C-11.49406769 18.33237678 -12.82670681 17.25993978 -15 14 C-15.5454104 10.93421943 -15.53808365 8.0670768 -15 5 C-10.58053726 -0.73335706 -6.94670018 -1.6767897 0 0 Z " fill="#D9E6EA" transform="translate(602,115)"/>
<path d="M0 0 C3.08813077 2.05875385 4.66221204 3.4716479 5.4765625 7.15625 C5.75651394 11.57653582 5.43904153 13.44542123 2.625 17 C-1.19852675 19.91316324 -3.18525148 20.37762733 -8 20 C-11.49406769 18.33237678 -12.82670681 17.25993978 -15 14 C-15.54531842 10.93473649 -15.54325893 8.06591671 -15 5 C-10.51832951 -0.66105746 -6.95672877 -1.88882502 0 0 Z " fill="#D6E2E6" transform="translate(432,115)"/>
<path d="M0 0 C3.67080764 2.52368025 4.75864984 4.17035883 6 8.4375 C6 12.55333147 5.29147823 14.60229091 3 18 C0.04881112 20.40467242 -3.29107729 20.41186021 -7.03125 20.328125 C-10.14316604 19.80947233 -11.85067869 18.21445226 -14 16 C-15.5547669 12.89046621 -15.28644437 10.43733239 -15 7 C-11.16480895 0.0966561 -7.64778252 -1.14914867 0 0 Z " fill="#D8E5E9" transform="translate(170,752)"/>
<path d="M0 0 C3.67080764 2.52368025 4.75864984 4.17035883 6 8.4375 C6 12.55333147 5.29147823 14.60229091 3 18 C0.04881112 20.40467242 -3.29107729 20.41186021 -7.03125 20.328125 C-10.14316604 19.80947233 -11.85067869 18.21445226 -14 16 C-15.5547669 12.89046621 -15.28644437 10.43733239 -15 7 C-11.16480895 0.0966561 -7.64778252 -1.14914867 0 0 Z " fill="#D8E5E9" transform="translate(170,712)"/>
<path d="M0 0 C3.67080764 2.52368025 4.75864984 4.17035883 6 8.4375 C6 12.55333147 5.29147823 14.60229091 3 18 C0.04881112 20.40467242 -3.29107729 20.41186021 -7.03125 20.328125 C-10.14316604 19.80947233 -11.85067869 18.21445226 -14 16 C-15.5547669 12.89046621 -15.28644437 10.43733239 -15 7 C-11.16480895 0.0966561 -7.64778252 -1.14914867 0 0 Z " fill="#D8E5E9" transform="translate(170,672)"/>
<path d="M0 0 C3.67080764 2.52368025 4.75864984 4.17035883 6 8.4375 C6 12.55333147 5.29147823 14.60229091 3 18 C0.04881112 20.40467242 -3.29107729 20.41186021 -7.03125 20.328125 C-10.14316604 19.80947233 -11.85067869 18.21445226 -14 16 C-15.5547669 12.89046621 -15.28644437 10.43733239 -15 7 C-11.16480895 0.0966561 -7.64778252 -1.14914867 0 0 Z " fill="#D8E5E9" transform="translate(170,632)"/>
<path d="M0 0 C3.67080764 2.52368025 4.75864984 4.17035883 6 8.4375 C6 12.55333147 5.29147823 14.60229091 3 18 C0.04881112 20.40467242 -3.29107729 20.41186021 -7.03125 20.328125 C-10.14316604 19.80947233 -11.85067869 18.21445226 -14 16 C-15.5547669 12.89046621 -15.28644437 10.43733239 -15 7 C-11.16480895 0.0966561 -7.64778252 -1.14914867 0 0 Z " fill="#D8E5E9" transform="translate(170,592)"/>
<path d="M0 0 C3.67080764 2.52368025 4.75864984 4.17035883 6 8.4375 C6 12.55333147 5.29147823 14.60229091 3 18 C0.04881112 20.40467242 -3.29107729 20.41186021 -7.03125 20.328125 C-10.14316604 19.80947233 -11.85067869 18.21445226 -14 16 C-15.5547669 12.89046621 -15.28644437 10.43733239 -15 7 C-11.16480895 0.0966561 -7.64778252 -1.14914867 0 0 Z " fill="#D8E5E9" transform="translate(170,552)"/>
<path d="M0 0 C2.82275936 1.25455972 4.46288541 2.28384722 6.3125 4.75 C7.31199111 8.0210618 7.3581657 10.59742588 7 14 C4.9872683 17.62291705 3.46892468 18.78765675 -0.3125 20.5 C-4.94059379 21.12753814 -7.03870946 20.43771726 -11 18 C-13.46492779 14.61072429 -13.9890512 12.62408155 -14.0625 8.4375 C-11.88416738 1.3899533 -7.10260533 -1.03310623 0 0 Z " fill="#D4E1E4" transform="translate(770,284)"/>
<path d="M0 0 C3.67080764 2.52368025 4.75864984 4.17035883 6 8.4375 C6 12.53094236 5.22004022 14.59065251 3 18 C-1.00254616 20.66836411 -4.29313299 20.8340238 -9 20 C-11.75569447 17.81840855 -13.43588747 16.12822506 -15 13 C-15.4136968 8.34591099 -14.81070393 5.74760524 -12 2 C-7.97500157 -0.68333228 -4.72857864 -0.79639219 0 0 Z " fill="#D8E5E9" transform="translate(743,256)"/>
<path d="M0 0 C3.00947682 2.00631788 4.50462948 3.46435138 5.625 6.9375 C6.24865905 10.36762478 6.13916134 12.67992892 4.75 15.875 C2.74549054 18.3090472 1.08023764 19.80782289 -2.0859375 20.37109375 C-6.33203313 20.494274 -8.40730178 20.40748002 -12 17.9375 C-14.40813237 14.40055558 -15 12.27436594 -15 8 C-12.12147801 0.37191673 -7.69451434 -1.28241906 0 0 Z " fill="#D9E6E9" transform="translate(290,256)"/>
<path d="M0 0 C3.59900794 1.79950397 5.65101819 4.05569629 7.0625 7.875 C6.97961928 12.01903601 6.14602992 14.44563794 4 18 C0.04098091 20.51245442 -2.03051132 21.13145609 -6.6875 20.5 C-10.46892468 18.78765675 -11.9872683 17.62291705 -14 14 C-14.62376056 9.00991556 -14.07972115 5.99223111 -11 2 C-7.29629592 -0.46913606 -4.29477089 -0.78602411 0 0 Z " fill="#DAE7EB" transform="translate(261,284)"/>
<path d="M0 0 C0.66 0.33 1.32 0.66 2 1 C-2.95 5.95 -7.9 10.9 -13 16 C-13.66 15.67 -14.32 15.34 -15 15 C-13.25420935 13.0585604 -11.50362507 11.12184216 -9.75 9.1875 C-9.25886719 8.64029297 -8.76773438 8.09308594 -8.26171875 7.52929688 C-5.68270045 4.69237675 -3.19370806 2.16715904 0 0 Z " fill="#8E9699" transform="translate(822,806)"/>
<path d="M0 0 C0.66 0.33 1.32 0.66 2 1 C-2.62 5.62 -7.24 10.24 -12 15 C-12.66 14.67 -13.32 14.34 -14 14 C-12.42100123 12.22513306 -10.83707231 10.45512408 -9.25 8.6875 C-8.8065625 8.18798828 -8.363125 7.68847656 -7.90625 7.17382812 C-5.453615 4.45068191 -3.02719984 2.07235877 0 0 Z " fill="#8F989A" transform="translate(475,50)"/>
<path d="M0 0 C0.66 0.33 1.32 0.66 2 1 C-2.62 5.62 -7.24 10.24 -12 15 C-12.66 14.67 -13.32 14.34 -14 14 C-12.42100123 12.22513306 -10.83707231 10.45512408 -9.25 8.6875 C-8.8065625 8.18798828 -8.363125 7.68847656 -7.90625 7.17382812 C-5.453615 4.45068191 -3.02719984 2.07235877 0 0 Z " fill="#8E9699" transform="translate(128,397)"/>
<path d="M0 0 C6.0546875 -0.1953125 6.0546875 -0.1953125 8 0 C8.66 0.66 9.32 1.32 10 2 C8.88625 2.6496875 8.88625 2.6496875 7.75 3.3125 C5.38166074 4.76579909 3.19075935 6.29607606 1 8 C2.875 3.125 2.875 3.125 4 2 C2.68 1.34 1.36 0.68 0 0 Z " fill="#98A1A3" transform="translate(155,511)"/>
<path d="M0 0 C1.8871875 0.061875 1.8871875 0.061875 3.8125 0.125 C3.8125 0.455 3.8125 0.785 3.8125 1.125 C2.265625 1.2178125 2.265625 1.2178125 0.6875 1.3125 C-4.07212827 2.31048657 -5.72342963 3.82990867 -9.1875 7.125 C-7.4328046 1.99589037 -5.59164481 -0.18333262 0 0 Z " fill="#868E91" transform="translate(257.1875,283.875)"/>
<path d="M0 0 C0.8971875 0.309375 0.8971875 0.309375 1.8125 0.625 C0.69875 1.2746875 0.69875 1.2746875 -0.4375 1.9375 C-2.80583926 3.39079909 -4.99674065 4.92107606 -7.1875 6.625 C-4.6484375 -0.796875 -4.6484375 -0.796875 0 0 Z " fill="#9FA9AC" transform="translate(163.1875,752.375)"/>
<path d="M0 0 C0.8971875 0.309375 0.8971875 0.309375 1.8125 0.625 C0.69875 1.2746875 0.69875 1.2746875 -0.4375 1.9375 C-2.80583926 3.39079909 -4.99674065 4.92107606 -7.1875 6.625 C-4.6484375 -0.796875 -4.6484375 -0.796875 0 0 Z " fill="#9FA9AC" transform="translate(163.1875,712.375)"/>
<path d="M0 0 C0.8971875 0.309375 0.8971875 0.309375 1.8125 0.625 C0.69875 1.2746875 0.69875 1.2746875 -0.4375 1.9375 C-2.80583926 3.39079909 -4.99674065 4.92107606 -7.1875 6.625 C-4.6484375 -0.796875 -4.6484375 -0.796875 0 0 Z " fill="#9FA9AC" transform="translate(163.1875,672.375)"/>
<path d="M0 0 C0.8971875 0.309375 0.8971875 0.309375 1.8125 0.625 C0.69875 1.2746875 0.69875 1.2746875 -0.4375 1.9375 C-2.80583926 3.39079909 -4.99674065 4.92107606 -7.1875 6.625 C-4.6484375 -0.796875 -4.6484375 -0.796875 0 0 Z " fill="#9FA9AC" transform="translate(163.1875,632.375)"/>
<path d="M0 0 C0.8971875 0.309375 0.8971875 0.309375 1.8125 0.625 C0.69875 1.2746875 0.69875 1.2746875 -0.4375 1.9375 C-2.80583926 3.39079909 -4.99674065 4.92107606 -7.1875 6.625 C-4.6484375 -0.796875 -4.6484375 -0.796875 0 0 Z " fill="#9FA9AC" transform="translate(163.1875,592.375)"/>
<path d="M0 0 C0.8971875 0.309375 0.8971875 0.309375 1.8125 0.625 C0.69875 1.2746875 0.69875 1.2746875 -0.4375 1.9375 C-2.80583926 3.39079909 -4.99674065 4.92107606 -7.1875 6.625 C-4.6484375 -0.796875 -4.6484375 -0.796875 0 0 Z " fill="#9FA9AC" transform="translate(163.1875,552.375)"/>
<path d="M0 0 C0.8971875 0.309375 0.8971875 0.309375 1.8125 0.625 C0.69875 1.2746875 0.69875 1.2746875 -0.4375 1.9375 C-2.80583926 3.39079909 -4.99674065 4.92107606 -7.1875 6.625 C-4.6484375 -0.796875 -4.6484375 -0.796875 0 0 Z " fill="#99A2A5" transform="translate(170.1875,369.375)"/>
<path d="M0 0 C0.8971875 0.309375 0.8971875 0.309375 1.8125 0.625 C0.69875 1.2746875 0.69875 1.2746875 -0.4375 1.9375 C-2.80583926 3.39079909 -4.99674065 4.92107606 -7.1875 6.625 C-4.6484375 -0.796875 -4.6484375 -0.796875 0 0 Z " fill="#99A2A5" transform="translate(368.1875,171.375)"/>
<path d="M0 0 C0.66 0.33 1.32 0.66 2 1 C1.21625 1.763125 0.4325 2.52625 -0.375 3.3125 C-3.07257717 5.90891805 -3.07257717 5.90891805 -5 9 C-4.5206753 4.68607774 -3.2542015 2.83430453 0 0 Z " fill="#969FA1" transform="translate(790,313)"/>
<path d="M0 0 C0.8971875 0.309375 0.8971875 0.309375 1.8125 0.625 C0.69875 1.2746875 0.69875 1.2746875 -0.4375 1.9375 C-2.80583926 3.39079909 -4.99674065 4.92107606 -7.1875 6.625 C-4.6484375 -0.796875 -4.6484375 -0.796875 0 0 Z " fill="#98A1A4" transform="translate(736.1875,256.375)"/>
<path d="M0 0 C0.8971875 0.309375 0.8971875 0.309375 1.8125 0.625 C0.69875 1.2746875 0.69875 1.2746875 -0.4375 1.9375 C-2.80583926 3.39079909 -4.99674065 4.92107606 -7.1875 6.625 C-4.6484375 -0.796875 -4.6484375 -0.796875 0 0 Z " fill="#949C9F" transform="translate(283.1875,256.375)"/>
<path d="M0 0 C0.66 0.33 1.32 0.66 2 1 C1.21625 1.763125 0.4325 2.52625 -0.375 3.3125 C-3.07257717 5.90891805 -3.07257717 5.90891805 -5 9 C-4.5206753 4.68607774 -3.2542015 2.83430453 0 0 Z " fill="#969FA1" transform="translate(592,115)"/>
</svg>
